<svg width="93" height="25" viewBox="0 0 93 25" fill="none" xmlns="http://www.w3.org/2000/svg">
<path d="M18.98 22.012V25H0.44V21.58C1.448 20.332 2.54 19 3.716 17.584C4.916 16.144 6.128 14.692 7.352 13.228C8.576 11.74 9.776 10.288 10.952 8.872C12.152 7.432 13.256 6.088 14.264 4.84H18.224L4.004 22.012H18.98ZM18.98 0.0159998V3.004H0.44V0.0159998H18.98ZM42.7323 0.0519993V14.704C42.7323 16.12 42.4563 17.452 41.9043 18.7C41.3763 19.948 40.6443 21.04 39.7083 21.976C38.7723 22.912 37.6683 23.656 36.3963 24.208C35.1483 24.736 33.8043 25 32.3643 25H32.1843C30.7443 25 29.3883 24.736 28.1163 24.208C26.8683 23.656 25.7763 22.912 24.8403 21.976C23.9043 21.04 23.1603 19.948 22.6083 18.7C22.0803 17.452 21.8163 16.12 21.8163 14.704V0.0519993H24.9482V14.704C24.9482 15.736 25.1403 16.696 25.5243 17.584C25.9083 18.472 26.4243 19.252 27.0723 19.924C27.7203 20.572 28.4763 21.088 29.3403 21.472C30.2283 21.832 31.1763 22.012 32.1843 22.012H32.3643C33.3723 22.012 34.3083 21.832 35.1723 21.472C36.0603 21.088 36.8283 20.572 37.4763 19.924C38.1243 19.252 38.6403 18.472 39.0243 17.584C39.4083 16.696 39.6003 15.736 39.6003 14.704V0.0519993H42.7323ZM71.4325 0.0159998V25H68.3725L68.3365 7.792L61.7125 22.876C61.5205 22.42 61.3645 22.036 61.2445 21.724C61.1245 21.412 61.0045 21.124 60.8845 20.86C60.7645 20.596 60.6445 20.32 60.5245 20.032C60.4045 19.72 60.2605 19.36 60.0925 18.952C60.6925 17.512 61.3285 15.988 62.0005 14.38C62.6965 12.772 63.3925 11.14 64.0885 9.484C64.8085 7.828 65.5165 6.196 66.2125 4.588C66.9085 2.98 67.5445 1.456 68.1205 0.0159998H71.4325ZM50.0485 0.0159998C51.8005 4.288 53.5285 8.464 55.2325 12.544C56.9605 16.6 58.7125 20.752 60.4885 25H57.1405L49.8325 7.72V25H46.7005V0.0159998H50.0485ZM82.3047 1.132L92.2767 25H77.8047C77.9487 24.664 78.0687 24.376 78.1647 24.136C78.2607 23.896 78.3447 23.68 78.4167 23.488C78.4887 23.272 78.5607 23.056 78.6327 22.84C78.7287 22.6 78.8487 22.324 78.9927 22.012H87.7767L82.3047 9.016L77.3007 21.04C77.0367 21.664 76.7607 22.324 76.4727 23.02C76.1847 23.716 75.9087 24.376 75.6447 25H72.2967L82.3047 1.132Z" fill="white"/>
</svg>
